<svg xmlns="http://www.w3.org/2000/svg" baseProfile="full" version="1.1" style="fill: none;" width="32px" height="32px">
    <path style="stroke-width: 1px; stroke-linecap: round; stroke-linejoin: round; stroke: rgb(255, 255, 255); fill: rgb(255, 255, 255);" d="M2,2 L2,2 L2,30 L30,30 L30,2 Z "/>
    <path style="stroke-width: 1px; stroke-linecap: butt; stroke-linejoin: round; stroke: rgb(33, 37, 41); fill: none;" d="M4,4 L4,4 L4,8 L28,8 L28,4 Z M4,10 L4,10 L4,14 L28,14 L28,10 Z M4,16 L4,16 L4,20 L28,20 L28,16 Z M22,26 L22,26 L30,26 M26,22 L26,22 L26,30 M28,28 L28,28 L24,24 M24,28 L24,28 L28,24 M20,26 L20,26 L4,26 L4,22 L24,22 "/>
</svg>